<svg width="54" height="48" viewBox="0 0 54 48" fill="none" xmlns="http://www.w3.org/2000/svg">
<path d="M26.9194 6.30125C29.3378 4.85226 31.7562 3.56427 34.1746 2.59827C36.593 1.63228 39.0114 0.827284 41.2686 0.344287C44.3319 -0.138711 46.7503 -0.138711 48.685 0.505286C50.781 1.14928 52.232 2.43727 53.1994 4.20826C54.0055 5.81825 54.1668 7.75024 53.8443 10.0042C53.1994 13.0632 51.4259 16.7662 48.3626 20.9522C47.8789 21.5962 47.3952 22.2402 46.7503 22.8841C47.3952 23.6891 47.8789 24.3331 48.3626 24.9771C51.4259 29.1631 53.1994 32.8661 53.8443 35.9251C54.1668 38.0181 54.0055 40.111 53.1994 41.721C52.232 43.331 50.781 44.619 48.685 45.263C47.0728 45.907 45.138 46.068 42.7196 45.746C42.5584 45.907 42.5584 45.907 42.3972 46.068C41.2686 47.195 39.6563 48 38.044 48C36.2706 48 34.8195 47.195 33.6909 46.068C32.5623 44.941 31.7562 43.492 31.7562 41.721C31.7562 39.95 32.5623 38.5011 33.6909 37.3741C34.8195 36.2471 36.2706 35.6031 38.044 35.6031C39.6563 35.6031 41.2686 36.2471 42.3972 37.3741C43.2033 38.1791 43.8482 39.3061 44.0095 40.594C45.2993 40.594 46.2666 40.594 47.0728 40.272C47.7177 40.111 48.2014 39.7891 48.3626 39.3061C48.685 38.6621 48.8463 37.8571 48.5238 36.7301C48.2014 34.4761 46.7503 31.5781 44.1707 28.1971C43.8482 27.7141 43.5258 27.3921 43.2033 26.9091C39.8175 30.4511 35.7869 33.8321 31.7562 36.5691C25.3071 41.077 18.3744 44.458 12.7314 45.424C9.6681 46.068 7.24969 45.907 5.31497 45.263C3.21902 44.619 1.76797 43.331 0.800612 41.721C-0.00552279 40.111 -0.16675 38.0181 0.155704 35.9251C0.639385 32.8661 2.41288 29.1631 5.4762 24.9771C6.1211 24.3331 6.60479 23.6891 7.08847 22.8841C6.60479 22.2402 6.1211 21.5962 5.4762 20.9522C2.41288 16.7662 0.639385 13.0632 0.155704 10.0042C-0.16675 7.75024 -0.00552279 5.81825 0.800612 4.20826C1.76797 2.43727 3.21902 1.14928 5.31497 0.505286C7.24969 -0.138711 9.6681 -0.138711 12.7314 0.344287C17.0845 1.14928 21.9214 3.24227 26.9194 6.30125ZM18.0519 24.6551C19.5029 24.6551 20.954 25.2991 21.9214 26.2651C22.8887 27.2311 23.5336 28.6801 23.5336 30.1291C23.5336 31.7391 22.8887 33.0271 21.9214 33.9931C20.954 35.1201 19.5029 35.6031 18.0519 35.6031C16.6009 35.6031 15.1498 35.1201 14.1825 33.9931C13.2151 33.0271 12.5702 31.7391 12.5702 30.1291C12.5702 29.6461 12.5702 29.3241 12.7314 28.8411C11.9253 28.1971 11.2804 27.5531 10.6355 26.9091C10.313 27.3921 9.99055 27.7141 9.82933 28.1971C7.24969 31.5781 5.79865 34.4761 5.31497 36.7301C5.15374 37.8571 5.31497 38.6621 5.4762 39.3061C5.79865 39.7891 6.28233 40.111 6.92724 40.272C8.05583 40.594 9.6681 40.755 11.764 40.272C16.6009 39.3061 22.7275 36.4081 28.6929 32.3831C32.7236 29.6461 36.4318 26.4261 39.8176 22.8841C36.4318 19.5032 32.7236 16.2832 28.6929 13.5462C22.7275 9.52123 16.6009 6.46225 11.764 5.65725C9.6681 5.17426 8.05583 5.17426 6.92724 5.49626C6.28233 5.81825 5.79865 6.14025 5.4762 6.62325C5.31497 7.10625 5.15374 8.07224 5.31497 9.03823C5.79865 11.2922 7.24969 14.3512 9.82933 17.7322C9.99055 18.2152 10.313 18.5372 10.6355 19.0202C11.4416 18.2152 12.0865 17.5712 12.8926 16.7662C12.8926 16.4442 12.7314 15.9612 12.7314 15.6392C12.7314 14.0292 13.3763 12.5802 14.5049 11.6142C15.4723 10.4872 16.9233 9.84323 18.5356 9.84323C19.9866 9.84323 21.4377 10.4872 22.5663 11.6142C23.5336 12.5802 24.1785 14.0292 24.1785 15.6392C24.1785 17.0882 23.5336 18.5372 22.5663 19.6642C21.4377 20.6302 19.9866 21.2742 18.5356 21.2742C17.7294 21.2742 16.9233 21.1132 16.2784 20.7912C15.6335 21.5962 14.8274 22.2402 14.1825 22.8841C14.8274 23.6891 15.4723 24.3331 16.2784 24.9771C16.7621 24.8161 17.407 24.6551 18.0519 24.6551ZM19.0193 29.3241C18.6968 29.0021 18.3744 28.8411 18.0519 28.8411C17.7295 28.8411 17.407 29.0021 17.0845 29.3241C16.9233 29.4851 16.7621 29.8071 16.7621 30.1291C16.7621 30.4511 16.9233 30.7731 17.0845 31.0951C17.407 31.2561 17.7295 31.4171 18.0519 31.4171C18.3744 31.4171 18.6968 31.2561 19.0193 31.0951C19.1805 30.7731 19.3417 30.4511 19.3417 30.1291C19.3417 29.8071 19.1805 29.4851 19.0193 29.3241ZM39.3339 40.272C39.0114 39.9501 38.5277 39.7891 38.044 39.7891C37.3991 39.7891 36.9155 39.9501 36.593 40.272C36.2706 40.755 36.1093 41.238 36.1093 41.721C36.1093 42.204 36.2706 42.848 36.593 43.17C36.9155 43.492 37.3991 43.653 38.044 43.653C38.5277 43.653 39.0114 43.492 39.3339 43.17C39.8176 42.848 39.9788 42.204 39.9788 41.721C39.9788 41.238 39.8176 40.755 39.3339 40.272ZM19.5029 14.5122C19.3417 14.3512 18.858 14.1902 18.5356 14.1902C18.0519 14.1902 17.7294 14.3512 17.407 14.5122C17.2458 14.8342 17.0845 15.1562 17.0845 15.6392C17.0845 15.9612 17.2458 16.4442 17.407 16.6052C17.7294 16.9272 18.0519 17.0882 18.5356 17.0882C18.858 17.0882 19.3417 16.9272 19.5029 16.6052C19.8254 16.4442 19.9866 15.9612 19.9866 15.6392C19.9866 15.1562 19.8254 14.8342 19.5029 14.5122ZM43.2033 19.0202C43.5258 18.5372 43.8482 18.2152 44.1707 17.7322C46.7503 14.3512 48.2014 11.2922 48.5238 9.03823C48.685 8.07224 48.685 7.10625 48.3626 6.62325C48.2014 6.14025 47.7177 5.81825 47.0728 5.49626C45.9442 5.17426 44.3319 5.17426 42.236 5.65725C40.4625 5.97925 38.3665 6.62325 36.1093 7.42824C34.8195 8.07224 33.3685 8.71624 32.0787 9.52123C35.9481 12.2582 39.8175 15.4782 43.2033 19.0202Z" fill="url(#paint0_linear_380_41)"/>
<defs>
<linearGradient id="paint0_linear_380_41" x1="-5" y1="-7" x2="31.7506" y2="-17.2747" gradientUnits="userSpaceOnUse">
<stop stop-color="#FF9D00"/>
<stop offset="1" stop-color="#DDFF00"/>
</linearGradient>
</defs>
</svg>
