<svg width="288" height="47" viewBox="0 0 288 47" fill="none" xmlns="http://www.w3.org/2000/svg">
<path d="M8.73184 33.5673C7.82727 33.975 7.55335 35.9752 7.91009 39.568C7.98653 40.8166 7.61706 41.4409 6.80167 41.4409C6.01177 41.4409 5.54674 40.8166 5.4066 39.568C5.4703 37.7079 5.50852 35.9052 5.52126 34.1597C5.48304 33.4208 4.90972 32.357 3.80131 30.9683C1.80107 29.07 0.832802 26.3562 0.896504 22.8272C1.13857 13.3865 5.26646 7.32848 13.2802 4.653C14.5287 4.20709 16.083 3.99687 17.9431 4.02235C21.2939 4.21346 22.9183 6.06719 22.8163 9.58353C22.536 14.4886 20.8097 16.699 17.6374 16.2149C16.0321 16.2149 15.3314 15.1766 15.5352 13.0999L16.3187 10.2524H15.841C14.6179 11.7175 14.1401 13.2145 14.4077 14.7434C14.7262 16.1321 14.4841 16.922 13.6815 17.1131C12.4584 17.6227 11.8915 17.0175 11.9806 15.2976C12.2227 13.6668 11.7004 13.2719 10.4136 14.1127C9.75107 15.132 9.13316 16.355 8.55985 17.782C7.84638 19.8459 7.49602 21.5722 7.50876 22.9609C7.61069 26.2225 9.46441 27.9297 13.0699 28.0826C14.2293 28.159 16.6372 27.7513 20.2937 26.8595C21.6824 28.0698 22.071 29.3821 21.4595 30.7963C19.8797 33.3571 16.6946 34.4719 11.9042 34.1406C10.7576 34.026 9.70011 33.8349 8.73184 33.5673Z" fill="url(#paint0_linear_380_32)"/>
<path d="M35.6395 33.7584C35.0153 31.1466 34.6267 28.6686 34.4738 26.3244C34.0788 26.4263 32.4162 26.7894 29.4859 27.4137C28.9381 32.7647 27.7341 36.3065 25.874 38.0392L23.9439 37.7525C22.4278 37.5232 21.6251 36.5613 21.5359 34.8668C21.9946 31.7072 22.3003 29.2865 22.4532 27.6048C21.6761 27.5411 21.2429 26.8022 21.1537 25.388C21.3703 23.9611 21.9309 23.0437 22.8354 22.6361C23.2686 16.2913 22.9055 10.297 21.7461 4.653L24.6127 3.46815C28.4476 3.96502 30.1675 9.70457 29.7726 20.6868C31.3014 20.3555 32.7666 20.0943 34.168 19.9032C34.1043 17.5463 34.2254 14.4695 34.5311 10.6728C35.2701 4.30264 36.869 1.35324 39.3279 1.82464L41.9078 3.3726L42.0798 3.96502C41.3791 10.7684 41.0287 15.8964 41.0287 19.349C41.997 19.4637 42.5512 20.0943 42.6913 21.241L42.7487 21.6041C42.8633 22.8144 42.3091 23.668 41.086 24.1649C41.1625 27.6048 41.5574 30.5096 42.2709 32.8793C42.8187 35.1216 42.4047 36.7524 41.0287 37.7716L41.0669 37.8099C40.9905 37.8481 40.9204 37.8799 40.8567 37.9054C40.6784 38.0201 40.4936 38.1284 40.3025 38.2303C39.4362 38.8036 38.9839 39.5489 38.9457 40.4662C38.78 41.0905 38.7864 42.2626 38.9648 43.9826C38.9393 44.8362 38.5316 45.263 37.7417 45.263C36.9263 45.263 36.4995 44.8362 36.4613 43.9826C36.6779 40.823 36.404 37.4149 35.6395 33.7584Z" fill="url(#paint1_linear_380_32)"/>
<path d="M58.6487 20.6486C57.2345 21.0817 56.6484 22.0436 56.8905 23.5343C57.209 24.9739 56.9669 25.7192 56.1643 25.7702C54.9412 26.0505 54.3743 25.3434 54.4635 23.6489C54.68 22.273 54.3106 21.7187 53.355 21.9863C53.113 22.101 52.8582 22.222 52.5906 22.3494L52.7626 25.1969C53.1576 29.2993 54.0048 31.2995 55.3043 31.1976C59.636 30.8663 62.7511 29.707 64.6494 27.7195C66.1018 26.318 67.2229 25.5918 68.0128 25.5409C69.9621 25.5409 71.0068 26.6174 71.147 28.7706C71.1852 30.1338 70.7903 31.3505 69.9621 32.4207C69.0066 33.8858 68.6626 35.4274 68.9302 37.0454C69.2487 38.4851 69.0066 39.2304 68.204 39.2814C66.9809 39.5617 66.4139 38.8546 66.5031 37.1601C66.707 35.8606 66.3948 35.2936 65.5667 35.4593C63.197 36.4403 60.0756 37.1537 56.2025 37.5996C50.3165 38.0328 47.2142 34.319 46.8957 26.4582L46.7237 24.356C45.5516 24.1904 44.7935 23.4897 44.4495 22.2538L44.3731 21.069C44.768 19.6803 45.4687 18.763 46.4752 18.3171C46.4115 17.4125 46.3478 16.5525 46.2841 15.7371C43.6978 16.6927 42.6467 15.3358 43.1309 11.6666C45.5133 8.58341 49.724 6.13089 55.763 4.30901C57.5848 3.87584 59.738 3.55733 62.2223 3.35348C66.7579 3.03497 69.2996 4.06058 69.8475 6.43029C69.8475 8.48149 69.1085 9.55168 67.6306 9.64086C64.4073 9.83197 61.1649 10.0931 57.9034 10.4244C55.5846 10.7429 53.6735 11.3799 52.1702 12.3355C52.0555 13.2273 52.0428 14.2911 52.132 15.5269L52.1511 15.89C54.0876 14.96 57.7441 14.3038 63.1205 13.9216C65.1463 14.5459 65.7833 15.9219 65.0316 18.0495C64.5092 19.0433 62.3816 19.9096 58.6487 20.6486Z" fill="url(#paint2_linear_380_32)"/>
<path d="M73.3447 35.0388C72.1598 34.1215 71.8159 30.8982 72.3127 25.3689C72.988 19.3681 74.9755 11.9341 78.2752 3.06683L79.9379 2.64639C82.3713 2.67187 84.7983 8.53245 87.219 20.2281C89.9072 8.88918 92.4935 3.17512 94.9779 3.08594C96.8125 3.06046 98.0738 5.0161 98.7618 8.95288C99.8574 15.0173 100.762 19.2662 101.475 21.6996C103.055 27.1398 103.75 31.0447 103.559 33.4144C101.647 35.4784 99.953 35.8924 98.4751 34.6566C97.2265 31.3951 96.15 28.038 95.2454 24.5853C94.7231 23.0183 94.3536 21.706 94.137 20.6486C93.5764 22.4322 93.0732 24.5089 92.6273 26.8786C91.659 30.7262 90.5888 32.7392 89.4167 32.9175L87.9834 33.1469C85.4226 33.0577 82.8172 28.4457 80.1672 19.3108C79.7085 20.6486 79.2562 24.872 78.8103 31.9811C78.8358 33.0004 78.581 33.7903 78.0459 34.3508L78.1223 34.3891C77.3834 34.8222 77.0267 35.7714 77.0521 37.2365C77.3707 39.0329 77.1286 40.0076 76.326 40.1605C75.2685 40.479 74.7844 39.5553 74.8735 37.3894C75.0392 36.3829 74.5359 35.6185 73.3638 35.0962L73.3447 35.0388Z" fill="url(#paint3_linear_380_32)"/>
<path d="M113.381 22.7698C112.553 22.8335 111.661 22.8781 110.706 22.9036C105.584 22.687 103.164 21.5404 103.444 19.4637C104.068 17.68 105.591 16.7627 108.011 16.7118C112.916 16.457 116.974 16.6417 120.185 17.266C121.306 17.6992 121.796 18.4636 121.656 19.5593L121.618 19.9032C121.516 20.9352 120.229 21.706 117.758 22.2156C116.955 23.5661 116.758 24.9102 117.165 26.248C117.165 27.3436 116.758 27.8915 115.942 27.8915C115.152 27.8915 114.725 27.3436 114.662 26.248C114.662 25.6237 114.668 24.9612 114.681 24.2605C114.783 23.7126 114.35 23.2157 113.381 22.7698Z" fill="url(#paint4_linear_380_32)"/>
<path d="M122.153 35.0388C120.968 34.1215 120.624 30.8982 121.121 25.3689C121.796 19.3681 123.784 11.9341 127.084 3.06683L128.746 2.64639C131.18 2.67187 133.607 8.53245 136.027 20.2281C138.716 8.88918 141.302 3.17512 143.786 3.08594C145.621 3.06046 146.882 5.0161 147.57 8.95288C148.666 15.0173 149.57 19.2662 150.284 21.6996C151.864 27.1398 152.558 31.0447 152.367 33.4144C150.456 35.4784 148.761 35.8924 147.284 34.6566C146.035 31.3951 144.958 28.038 144.054 24.5853C143.531 23.0183 143.162 21.706 142.945 20.6486C142.385 22.4322 141.882 24.5089 141.436 26.8786C140.467 30.7262 139.397 32.7392 138.225 32.9175L136.792 33.1469C134.231 33.0577 131.626 28.4457 128.976 19.3108C128.517 20.6486 128.065 24.872 127.619 31.9811C127.644 33.0004 127.389 33.7903 126.854 34.3508L126.931 34.3891C126.192 34.8222 125.835 35.7714 125.861 37.2365C126.179 39.0329 125.937 40.0076 125.134 40.1605C124.077 40.479 123.593 39.5553 123.682 37.3894C123.848 36.3829 123.344 35.6185 122.172 35.0962L122.153 35.0388Z" fill="url(#paint5_linear_380_32)"/>
<path d="M155.654 18.7375C154.635 18.3043 154.24 18.8076 154.469 20.2472C154.558 21.9544 153.991 22.6042 152.768 22.1965C151.966 22.0691 151.724 21.2983 152.042 19.8841C152.31 18.2916 151.845 16.1831 150.647 13.5585C148.685 10.9977 147.787 8.71719 147.952 6.71695C148.169 5.62127 149.156 4.81226 150.915 4.2899C152.494 4.64663 155.648 8.27127 160.374 15.1638C164.54 7.36671 167.796 2.70372 170.14 1.17488C172.662 1.72272 173.713 2.98401 173.293 4.95877C166.35 17.7629 162.266 27.2099 161.043 33.2998C160.355 36.2555 159.967 37.8035 159.877 37.9436C158.909 40.1987 158.584 42.0906 158.903 43.6195C159.221 45.4159 158.979 46.3905 158.177 46.5434C157.119 46.8619 156.635 45.9382 156.724 43.7724C156.979 41.7212 156.616 39.8738 155.635 38.2303C154.412 36.6377 154.463 32.6181 155.788 26.1715C156.157 24.5535 156.807 22.6615 157.737 20.4957C156.998 19.8969 156.304 19.3108 155.654 18.7375Z" fill="url(#paint6_linear_380_32)"/>
<path d="M191.754 30.223L191.849 30.1465C190.397 31.7263 189.626 33.3507 189.537 35.0197C189.461 37.2493 189.492 39.2049 189.633 40.8867C189.607 41.7403 189.263 42.1671 188.601 42.1671C187.913 42.1671 187.55 41.7403 187.511 40.8867C187.881 36.9499 187.607 34.7139 186.69 34.1788C185.861 34.6375 184.95 35.0898 183.957 35.5357C179.103 37.3321 175.994 38.3258 174.631 38.5169C172.197 38.8864 170.758 37.8481 170.312 35.4019C169.955 33.4909 170.974 32.0703 173.369 31.1403C174.338 30.6816 175.656 30.6052 177.325 30.9109C177.886 30.9746 179.084 30.7198 180.918 30.1465C184.141 28.7196 185.728 27.6749 185.677 27.0124C185.702 26.7448 183.759 26.0887 179.848 25.044C178.778 24.9166 178.23 25.3625 178.204 26.3817C178.294 28.1017 177.727 28.7069 176.504 28.1972C175.701 28.0061 175.459 27.2162 175.777 25.8275C175.714 24.5917 175.121 23.719 174 23.2094H174.038C171.095 21.655 169.643 19.4892 169.681 16.7118C169.605 9.97212 173.79 4.78041 182.237 1.13666C188.187 -0.455891 191.021 1.58257 190.741 7.25204C190.626 9.40517 189.269 12.0106 186.67 15.0683C183.141 15.82 181.702 14.8071 182.351 12.0297C183.893 9.67272 184.651 8.31586 184.626 7.95913C184.409 7.86995 184.199 7.80625 183.995 7.76803C182.3 7.95913 180.217 9.45613 177.746 12.259C176.714 13.7624 176.3 15.2212 176.504 16.6353C176.656 17.5272 180.593 18.8968 188.314 20.7441C191.397 21.5085 192.951 23.5852 192.977 26.9742C192.977 28.0698 192.569 29.1528 191.754 30.223Z" fill="url(#paint7_linear_380_32)"/>
<path d="M213.731 8.37957C213.463 12.9279 213.438 17.4507 213.655 21.9481C213.616 22.8017 213.19 23.2285 212.374 23.2285C211.584 23.2285 211.177 22.8017 211.151 21.9481C211.329 19.451 211.425 16.9666 211.438 14.495C211.438 11.3863 210.858 9.46887 209.699 8.74267C209.113 8.76815 208.495 8.78726 207.845 8.8C207.654 9.37332 207.635 11.1952 207.788 14.2656C208.883 27.2481 209.176 34.1788 208.667 35.0579C208.157 35.9498 208.036 37.1792 208.304 38.7463C208.622 40.135 208.38 40.9249 207.577 41.116C206.354 41.6256 205.787 41.0204 205.877 39.3005C206.131 37.6442 205.781 36.7843 204.825 36.7206L204.787 36.6441C204.431 36.5677 204.144 36.402 203.927 36.1472C202.144 33.8922 201.143 24.8465 200.927 9.01021C199.997 9.0357 198.665 9.21406 196.933 9.54531C193.748 10.0294 191.837 9.91478 191.2 9.20132C190.282 7.78714 190.327 6.51947 191.333 5.39832C194.735 2.58269 200.583 1.47428 208.877 2.07308L217.247 2.37884C218.712 2.72284 219.426 3.55733 219.388 4.88233C219.311 6.6405 217.426 7.80625 213.731 8.37957Z" fill="url(#paint8_linear_380_32)"/>
<path d="M224.337 20.6486C222.923 21.0817 222.337 22.0436 222.579 23.5343C222.898 24.9739 222.656 25.7192 221.853 25.7702C220.63 26.0505 220.063 25.3434 220.152 23.6489C220.369 22.273 219.999 21.7187 219.044 21.9863C218.802 22.101 218.547 22.222 218.279 22.3494L218.451 25.1969C218.846 29.2993 219.694 31.2995 220.993 31.1976C225.325 30.8663 228.44 29.707 230.338 27.7195C231.791 26.318 232.912 25.5918 233.702 25.5409C235.651 25.5409 236.696 26.6174 236.836 28.7706C236.874 30.1338 236.479 31.3505 235.651 32.4207C234.695 33.8858 234.351 35.4274 234.619 37.0454C234.937 38.4851 234.695 39.2304 233.893 39.2814C232.67 39.5617 232.103 38.8546 232.192 37.1601C232.396 35.8606 232.084 35.2936 231.255 35.4593C228.886 36.4403 225.764 37.1537 221.891 37.5996C216.005 38.0328 212.903 34.319 212.584 26.4582L212.412 24.356C211.24 24.1904 210.482 23.4897 210.138 22.2538L210.062 21.069C210.457 19.6803 211.157 18.763 212.164 18.3171C212.1 17.4125 212.037 16.5525 211.973 15.7371C209.387 16.6927 208.335 15.3358 208.82 11.6666C211.202 8.58341 215.413 6.13089 221.452 4.30901C223.274 3.87584 225.427 3.55733 227.911 3.35348C232.447 3.03497 234.988 4.06058 235.536 6.43029C235.536 8.48149 234.797 9.55168 233.319 9.64086C230.096 9.83197 226.854 10.0931 223.592 10.4244C221.273 10.7429 219.362 11.3799 217.859 12.3355C217.744 13.2273 217.731 14.2911 217.821 15.5269L217.84 15.89C219.776 14.96 223.433 14.3038 228.809 13.9216C230.835 14.5459 231.472 15.9219 230.72 18.0495C230.198 19.0433 228.07 19.9096 224.337 20.6486Z" fill="url(#paint9_linear_380_32)"/>
<path d="M244.652 9.90841C244.563 13.068 244.512 15.6925 244.499 17.782C250.398 14.8772 253.596 12.1953 254.093 9.73642C254.105 9.68546 253.749 9.45613 253.022 9.04844C251.965 8.67897 250.818 8.51334 249.582 8.55156C248.742 8.84459 248.423 9.61538 248.627 10.8639C248.945 12.2781 248.703 13.0489 247.901 13.1763C246.678 13.584 246.111 12.9343 246.2 11.227C246.455 9.62175 245.939 9.18221 244.652 9.90841ZM257.36 16.7882C255.691 18.1387 253.583 19.521 251.035 20.9352C253.736 25.3816 256.507 28.1909 259.348 29.363C263.985 31.1212 264.259 33.2552 260.17 35.765L258.87 35.7077C253.252 33.631 248.703 29.7388 245.225 24.0311C245.123 24.0821 244.792 24.2413 244.231 24.5089C244.104 25.8084 244.238 28.6368 244.633 32.994C244.161 34.8541 242.505 35.2809 239.664 34.2744C238.059 32.134 237.587 22.4513 238.25 5.22632C246.034 2.35973 252.341 1.85649 257.169 3.71659C261.144 5.60216 262.629 8.23305 261.622 11.6093C261.406 12.1698 261.106 12.7304 260.724 13.291C260.189 14.6924 260.01 16.2977 260.189 18.1068C260.418 19.7249 260.182 20.5721 259.482 20.6486C258.628 20.6103 258.24 19.8013 258.316 18.2215C258.507 16.8965 258.189 16.4187 257.36 16.7882Z" fill="url(#paint10_linear_380_32)"/>
<path d="M270.126 18.7375C269.107 18.3043 268.712 18.8076 268.941 20.2472C269.031 21.9544 268.464 22.6042 267.241 22.1965C266.438 22.0691 266.196 21.2983 266.514 19.8841C266.782 18.2916 266.317 16.1831 265.119 13.5585C263.157 10.9977 262.259 8.71719 262.425 6.71695C262.641 5.62127 263.629 4.81226 265.387 4.2899C266.967 4.64663 270.12 8.27127 274.847 15.1638C279.013 7.36671 282.268 2.70372 284.612 1.17488C287.135 1.72272 288.186 2.98401 287.765 4.95877C280.822 17.7629 276.739 27.2099 275.515 33.2998C274.827 36.2555 274.439 37.8035 274.35 37.9436C273.381 40.1987 273.057 42.0906 273.375 43.6195C273.694 45.4159 273.452 46.3905 272.649 46.5434C271.591 46.8619 271.107 45.9382 271.197 43.7724C271.451 41.7212 271.088 39.8738 270.107 38.2303C268.884 36.6377 268.935 32.6181 270.26 26.1715C270.63 24.5535 271.279 22.6615 272.209 20.4957C271.47 19.8969 270.776 19.3108 270.126 18.7375Z" fill="url(#paint11_linear_380_32)"/>
<defs>
<linearGradient id="paint0_linear_380_32" x1="60.0037" y1="-10.8852" x2="253.145" y2="91.6104" gradientUnits="userSpaceOnUse">
<stop stop-color="#FF9D00"/>
<stop offset="1" stop-color="#DDFF00"/>
</linearGradient>
<linearGradient id="paint1_linear_380_32" x1="60.0037" y1="-10.8852" x2="253.145" y2="91.6104" gradientUnits="userSpaceOnUse">
<stop stop-color="#FF9D00"/>
<stop offset="1" stop-color="#DDFF00"/>
</linearGradient>
<linearGradient id="paint2_linear_380_32" x1="60.0037" y1="-10.8852" x2="253.145" y2="91.6104" gradientUnits="userSpaceOnUse">
<stop stop-color="#FF9D00"/>
<stop offset="1" stop-color="#DDFF00"/>
</linearGradient>
<linearGradient id="paint3_linear_380_32" x1="60.0037" y1="-10.8852" x2="253.145" y2="91.6104" gradientUnits="userSpaceOnUse">
<stop stop-color="#FF9D00"/>
<stop offset="1" stop-color="#DDFF00"/>
</linearGradient>
<linearGradient id="paint4_linear_380_32" x1="60.0037" y1="-10.8852" x2="253.145" y2="91.6104" gradientUnits="userSpaceOnUse">
<stop stop-color="#FF9D00"/>
<stop offset="1" stop-color="#DDFF00"/>
</linearGradient>
<linearGradient id="paint5_linear_380_32" x1="60.0037" y1="-10.8852" x2="253.145" y2="91.6104" gradientUnits="userSpaceOnUse">
<stop stop-color="#FF9D00"/>
<stop offset="1" stop-color="#DDFF00"/>
</linearGradient>
<linearGradient id="paint6_linear_380_32" x1="60.0037" y1="-10.8852" x2="253.145" y2="91.6104" gradientUnits="userSpaceOnUse">
<stop stop-color="#FF9D00"/>
<stop offset="1" stop-color="#DDFF00"/>
</linearGradient>
<linearGradient id="paint7_linear_380_32" x1="60.0037" y1="-10.8852" x2="253.145" y2="91.6104" gradientUnits="userSpaceOnUse">
<stop stop-color="#FF9D00"/>
<stop offset="1" stop-color="#DDFF00"/>
</linearGradient>
<linearGradient id="paint8_linear_380_32" x1="60.0037" y1="-10.8852" x2="253.145" y2="91.6104" gradientUnits="userSpaceOnUse">
<stop stop-color="#FF9D00"/>
<stop offset="1" stop-color="#DDFF00"/>
</linearGradient>
<linearGradient id="paint9_linear_380_32" x1="60.0037" y1="-10.8852" x2="253.145" y2="91.6104" gradientUnits="userSpaceOnUse">
<stop stop-color="#FF9D00"/>
<stop offset="1" stop-color="#DDFF00"/>
</linearGradient>
<linearGradient id="paint10_linear_380_32" x1="60.0037" y1="-10.8852" x2="253.145" y2="91.6104" gradientUnits="userSpaceOnUse">
<stop stop-color="#FF9D00"/>
<stop offset="1" stop-color="#DDFF00"/>
</linearGradient>
<linearGradient id="paint11_linear_380_32" x1="60.0037" y1="-10.8852" x2="253.145" y2="91.6104" gradientUnits="userSpaceOnUse">
<stop stop-color="#FF9D00"/>
<stop offset="1" stop-color="#DDFF00"/>
</linearGradient>
</defs>
</svg>
